<mxfile host="Electron" agent="Mozilla/5.0 (X11; Linux x86_64) AppleWebKit/537.36 (KHTML, like Gecko) draw.io/26.0.15 Chrome/132.0.6834.196 Electron/34.2.0 Safari/537.36" version="26.0.15">
  <diagram name="Page-1" id="NvCUtPoePunCcJhdZWw5">
    <mxGraphModel dx="2391" dy="1183" grid="1" gridSize="10" guides="1" tooltips="1" connect="1" arrows="1" fold="1" page="1" pageScale="1" pageWidth="850" pageHeight="1100" math="0" shadow="0">
      <root>
        <mxCell id="0" />
        <mxCell id="1" parent="0" />
        <mxCell id="upJb1UwgUK7OKY36Gzjb-3" value="" style="edgeStyle=orthogonalEdgeStyle;rounded=0;orthogonalLoop=1;jettySize=auto;html=1;" edge="1" parent="1" source="upJb1UwgUK7OKY36Gzjb-1" target="upJb1UwgUK7OKY36Gzjb-2">
          <mxGeometry relative="1" as="geometry" />
        </mxCell>
        <mxCell id="upJb1UwgUK7OKY36Gzjb-1" value="&lt;span style=&quot;color: oklab(0.89908 -0.00192907 -0.0048306); font-family: &amp;quot;gg mono&amp;quot;, &amp;quot;Source Code Pro&amp;quot;, Consolas, &amp;quot;Andale Mono WT&amp;quot;, &amp;quot;Andale Mono&amp;quot;, &amp;quot;Lucida Console&amp;quot;, &amp;quot;Lucida Sans Typewriter&amp;quot;, &amp;quot;DejaVu Sans Mono&amp;quot;, &amp;quot;Bitstream Vera Sans Mono&amp;quot;, &amp;quot;Liberation Mono&amp;quot;, &amp;quot;Nimbus Mono L&amp;quot;, Monaco, &amp;quot;Courier New&amp;quot;, Courier, monospace; font-size: 14px; text-align: left; white-space: pre; background-color: oklab(0.296709 -0.000735492 -0.00772537);&quot;&gt;Largest of Three Numbers&lt;/span&gt;" style="rounded=1;whiteSpace=wrap;html=1;arcSize=50;" vertex="1" parent="1">
          <mxGeometry x="561" y="50" width="235" height="60" as="geometry" />
        </mxCell>
        <mxCell id="upJb1UwgUK7OKY36Gzjb-5" value="" style="edgeStyle=orthogonalEdgeStyle;rounded=0;orthogonalLoop=1;jettySize=auto;html=1;" edge="1" parent="1" source="upJb1UwgUK7OKY36Gzjb-2">
          <mxGeometry relative="1" as="geometry">
            <mxPoint x="679.0000000000005" y="310" as="targetPoint" />
            <Array as="points">
              <mxPoint x="679" y="280" />
              <mxPoint x="679" y="280" />
            </Array>
          </mxGeometry>
        </mxCell>
        <mxCell id="upJb1UwgUK7OKY36Gzjb-2" value="Enter three numbers &amp;gt;&amp;gt;&amp;gt;&amp;nbsp;" style="shape=parallelogram;perimeter=parallelogramPerimeter;whiteSpace=wrap;html=1;fixedSize=1;" vertex="1" parent="1">
          <mxGeometry x="550" y="190" width="257" height="60" as="geometry" />
        </mxCell>
        <mxCell id="upJb1UwgUK7OKY36Gzjb-64" value="" style="edgeStyle=orthogonalEdgeStyle;rounded=0;orthogonalLoop=1;jettySize=auto;html=1;" edge="1" parent="1" source="upJb1UwgUK7OKY36Gzjb-62" target="upJb1UwgUK7OKY36Gzjb-63">
          <mxGeometry relative="1" as="geometry" />
        </mxCell>
        <mxCell id="upJb1UwgUK7OKY36Gzjb-62" value="num1, num2, num3" style="shape=parallelogram;perimeter=parallelogramPerimeter;whiteSpace=wrap;html=1;fixedSize=1;" vertex="1" parent="1">
          <mxGeometry x="591" y="310" width="175" height="60" as="geometry" />
        </mxCell>
        <mxCell id="upJb1UwgUK7OKY36Gzjb-66" style="edgeStyle=orthogonalEdgeStyle;rounded=0;orthogonalLoop=1;jettySize=auto;html=1;" edge="1" parent="1" source="upJb1UwgUK7OKY36Gzjb-63" target="upJb1UwgUK7OKY36Gzjb-65">
          <mxGeometry relative="1" as="geometry" />
        </mxCell>
        <mxCell id="upJb1UwgUK7OKY36Gzjb-78" style="edgeStyle=orthogonalEdgeStyle;rounded=0;orthogonalLoop=1;jettySize=auto;html=1;entryX=0.5;entryY=0;entryDx=0;entryDy=0;" edge="1" parent="1" source="upJb1UwgUK7OKY36Gzjb-63" target="upJb1UwgUK7OKY36Gzjb-76">
          <mxGeometry relative="1" as="geometry" />
        </mxCell>
        <mxCell id="upJb1UwgUK7OKY36Gzjb-63" value="num1 &amp;gt; num2" style="rhombus;whiteSpace=wrap;html=1;" vertex="1" parent="1">
          <mxGeometry x="566" y="410" width="225" height="80" as="geometry" />
        </mxCell>
        <mxCell id="upJb1UwgUK7OKY36Gzjb-68" style="edgeStyle=orthogonalEdgeStyle;rounded=0;orthogonalLoop=1;jettySize=auto;html=1;" edge="1" parent="1" source="upJb1UwgUK7OKY36Gzjb-65" target="upJb1UwgUK7OKY36Gzjb-67">
          <mxGeometry relative="1" as="geometry" />
        </mxCell>
        <mxCell id="upJb1UwgUK7OKY36Gzjb-86" style="edgeStyle=orthogonalEdgeStyle;rounded=0;orthogonalLoop=1;jettySize=auto;html=1;" edge="1" parent="1" source="upJb1UwgUK7OKY36Gzjb-65" target="upJb1UwgUK7OKY36Gzjb-74">
          <mxGeometry relative="1" as="geometry">
            <Array as="points">
              <mxPoint x="496" y="580" />
            </Array>
          </mxGeometry>
        </mxCell>
        <mxCell id="upJb1UwgUK7OKY36Gzjb-65" value="num1 &amp;gt; num3&amp;nbsp;" style="rhombus;whiteSpace=wrap;html=1;" vertex="1" parent="1">
          <mxGeometry x="552" y="540" width="253" height="80" as="geometry" />
        </mxCell>
        <mxCell id="upJb1UwgUK7OKY36Gzjb-88" value="" style="edgeStyle=orthogonalEdgeStyle;rounded=0;orthogonalLoop=1;jettySize=auto;html=1;" edge="1" parent="1" source="upJb1UwgUK7OKY36Gzjb-67" target="upJb1UwgUK7OKY36Gzjb-87">
          <mxGeometry relative="1" as="geometry" />
        </mxCell>
        <mxCell id="upJb1UwgUK7OKY36Gzjb-67" value="max = num1" style="shape=parallelogram;perimeter=parallelogramPerimeter;whiteSpace=wrap;html=1;fixedSize=1;" vertex="1" parent="1">
          <mxGeometry x="606" y="690" width="144.5" height="60" as="geometry" />
        </mxCell>
        <mxCell id="upJb1UwgUK7OKY36Gzjb-69" value="True" style="text;html=1;align=center;verticalAlign=middle;whiteSpace=wrap;rounded=0;" vertex="1" parent="1">
          <mxGeometry x="690" y="500" width="60" height="30" as="geometry" />
        </mxCell>
        <mxCell id="upJb1UwgUK7OKY36Gzjb-70" value="True" style="text;html=1;align=center;verticalAlign=middle;whiteSpace=wrap;rounded=0;" vertex="1" parent="1">
          <mxGeometry x="690" y="640" width="60" height="30" as="geometry" />
        </mxCell>
        <mxCell id="upJb1UwgUK7OKY36Gzjb-89" style="edgeStyle=orthogonalEdgeStyle;rounded=0;orthogonalLoop=1;jettySize=auto;html=1;entryX=0.5;entryY=0;entryDx=0;entryDy=0;" edge="1" parent="1" source="upJb1UwgUK7OKY36Gzjb-74" target="upJb1UwgUK7OKY36Gzjb-87">
          <mxGeometry relative="1" as="geometry">
            <Array as="points">
              <mxPoint x="496" y="810" />
              <mxPoint x="678" y="810" />
            </Array>
          </mxGeometry>
        </mxCell>
        <mxCell id="upJb1UwgUK7OKY36Gzjb-74" value="max = num3" style="rounded=0;whiteSpace=wrap;html=1;" vertex="1" parent="1">
          <mxGeometry x="436" y="690" width="120" height="60" as="geometry" />
        </mxCell>
        <mxCell id="upJb1UwgUK7OKY36Gzjb-81" value="" style="edgeStyle=orthogonalEdgeStyle;rounded=0;orthogonalLoop=1;jettySize=auto;html=1;" edge="1" parent="1" source="upJb1UwgUK7OKY36Gzjb-76" target="upJb1UwgUK7OKY36Gzjb-80">
          <mxGeometry relative="1" as="geometry" />
        </mxCell>
        <mxCell id="upJb1UwgUK7OKY36Gzjb-85" style="edgeStyle=orthogonalEdgeStyle;rounded=0;orthogonalLoop=1;jettySize=auto;html=1;" edge="1" parent="1" source="upJb1UwgUK7OKY36Gzjb-76" target="upJb1UwgUK7OKY36Gzjb-84">
          <mxGeometry relative="1" as="geometry" />
        </mxCell>
        <mxCell id="upJb1UwgUK7OKY36Gzjb-76" value="num2 &amp;gt; num3" style="rhombus;whiteSpace=wrap;html=1;" vertex="1" parent="1">
          <mxGeometry x="183" y="470" width="253" height="80" as="geometry" />
        </mxCell>
        <mxCell id="upJb1UwgUK7OKY36Gzjb-91" style="edgeStyle=orthogonalEdgeStyle;rounded=0;orthogonalLoop=1;jettySize=auto;html=1;entryX=0.5;entryY=0;entryDx=0;entryDy=0;" edge="1" parent="1" source="upJb1UwgUK7OKY36Gzjb-80" target="upJb1UwgUK7OKY36Gzjb-87">
          <mxGeometry relative="1" as="geometry">
            <Array as="points">
              <mxPoint x="310" y="810" />
              <mxPoint x="678" y="810" />
            </Array>
          </mxGeometry>
        </mxCell>
        <mxCell id="upJb1UwgUK7OKY36Gzjb-80" value="max = num2" style="rounded=0;whiteSpace=wrap;html=1;" vertex="1" parent="1">
          <mxGeometry x="249.5" y="690" width="120" height="60" as="geometry" />
        </mxCell>
        <mxCell id="upJb1UwgUK7OKY36Gzjb-83" value="True" style="text;html=1;align=center;verticalAlign=middle;whiteSpace=wrap;rounded=0;" vertex="1" parent="1">
          <mxGeometry x="323" y="560" width="60" height="30" as="geometry" />
        </mxCell>
        <mxCell id="upJb1UwgUK7OKY36Gzjb-92" style="edgeStyle=orthogonalEdgeStyle;rounded=0;orthogonalLoop=1;jettySize=auto;html=1;" edge="1" parent="1" source="upJb1UwgUK7OKY36Gzjb-84" target="upJb1UwgUK7OKY36Gzjb-87">
          <mxGeometry relative="1" as="geometry">
            <Array as="points">
              <mxPoint x="103" y="810" />
              <mxPoint x="678" y="810" />
            </Array>
          </mxGeometry>
        </mxCell>
        <mxCell id="upJb1UwgUK7OKY36Gzjb-84" value="max = num3" style="rounded=0;whiteSpace=wrap;html=1;" vertex="1" parent="1">
          <mxGeometry x="43" y="690" width="120" height="60" as="geometry" />
        </mxCell>
        <mxCell id="upJb1UwgUK7OKY36Gzjb-94" value="" style="edgeStyle=orthogonalEdgeStyle;rounded=0;orthogonalLoop=1;jettySize=auto;html=1;" edge="1" parent="1" source="upJb1UwgUK7OKY36Gzjb-87" target="upJb1UwgUK7OKY36Gzjb-93">
          <mxGeometry relative="1" as="geometry" />
        </mxCell>
        <mxCell id="upJb1UwgUK7OKY36Gzjb-87" value="Largest is max" style="shape=parallelogram;perimeter=parallelogramPerimeter;whiteSpace=wrap;html=1;fixedSize=1;" vertex="1" parent="1">
          <mxGeometry x="591" y="860" width="174.5" height="60" as="geometry" />
        </mxCell>
        <mxCell id="upJb1UwgUK7OKY36Gzjb-93" value="END" style="rounded=1;whiteSpace=wrap;html=1;arcSize=50;" vertex="1" parent="1">
          <mxGeometry x="618.5" y="960" width="120" height="60" as="geometry" />
        </mxCell>
      </root>
    </mxGraphModel>
  </diagram>
</mxfile>
